<svg width="190" height="245" viewBox="0 0 190 245" fill="none" xmlns="http://www.w3.org/2000/svg">
<mask id="path-1-inside-1_208:32" fill="white">
<path fill-rule="evenodd" clip-rule="evenodd" d="M170 245C181.046 245 190 236.046 190 225L190 20C190 8.9543 181.046 0 170 0L20 0C8.9543 0 0 8.95432 0 20V102.646C8.62614 104.922 15 112.948 15 122.5C15 132.052 8.62614 140.078 0 142.354V225C0 236.046 8.95432 245 20 245L170 245Z"/>
</mask>
<path d="M0 102.646H-2V104.187L-0.510176 104.58L0 102.646ZM0 142.354L-0.510178 140.42L-2 140.813V142.354H0ZM188 225C188 234.941 179.941 243 170 243V247C182.15 247 192 237.15 192 225H188ZM188 20L188 225H192L192 20H188ZM170 2C179.941 2 188 10.0589 188 20H192C192 7.84973 182.15 -2 170 -2V2ZM20 2L170 2V-2L20 -2V2ZM2 20C2 10.0589 10.0589 2 20 2V-2C7.84973 -2 -2 7.84975 -2 20H2ZM2 102.646V20H-2V102.646H2ZM-0.510176 104.58C7.23022 106.622 13 113.848 13 122.5L17 122.5C17 112.048 10.0221 103.221 0.510176 100.712L-0.510176 104.58ZM13 122.5C13 131.152 7.23022 138.378 -0.510178 140.42L0.510178 144.288C10.0221 141.779 17 132.952 17 122.5L13 122.5ZM2 225V142.354H-2V225H2ZM20 243C10.0589 243 2 234.941 2 225H-2C-2 237.15 7.84975 247 20 247V243ZM170 243L20 243V247L170 247V243Z" fill="#303964" mask="url(#path-1-inside-1_208:32)"/>
</svg>
