<svg width="190" height="245" viewBox="0 0 190 245" fill="none" xmlns="http://www.w3.org/2000/svg">
<mask id="path-1-inside-1_206:40" fill="white">
<path fill-rule="evenodd" clip-rule="evenodd" d="M20 0C8.95431 0 0 8.95431 0 20V225C0 236.046 8.95431 245 20 245H170C181.046 245 190 236.046 190 225V142.354C181.374 140.078 175 132.052 175 122.5C175 112.948 181.374 104.922 190 102.646V20C190 8.9543 181.046 0 170 0H20Z"/>
</mask>
<path d="M190 142.354H192V140.813L190.51 140.42L190 142.354ZM190 102.646L190.51 104.58L192 104.187V102.646H190ZM2 20C2 10.0589 10.0589 2 20 2V-2C7.84974 -2 -2 7.84974 -2 20H2ZM2 225V20H-2V225H2ZM20 243C10.0589 243 2 234.941 2 225H-2C-2 237.15 7.84974 247 20 247V243ZM170 243H20V247H170V243ZM188 225C188 234.941 179.941 243 170 243V247C182.15 247 192 237.15 192 225H188ZM188 142.354V225H192V142.354H188ZM190.51 140.42C182.77 138.378 177 131.152 177 122.5H173C173 132.952 179.978 141.779 189.49 144.288L190.51 140.42ZM177 122.5C177 113.848 182.77 106.622 190.51 104.58L189.49 100.712C179.978 103.221 173 112.048 173 122.5H177ZM188 20V102.646H192V20H188ZM170 2C179.941 2 188 10.0589 188 20H192C192 7.84973 182.15 -2 170 -2V2ZM20 2H170V-2H20V2Z" fill="#303964" mask="url(#path-1-inside-1_206:40)"/>
</svg>
