<svg width="190" height="245" viewBox="0 0 190 245" fill="none" xmlns="http://www.w3.org/2000/svg">
<mask id="path-1-inside-1_206:42" fill="white">
<path fill-rule="evenodd" clip-rule="evenodd" d="M0 20C0 8.95431 8.95431 0 20 0H170C181.046 0 190 8.9543 190 20V102.646C181.374 104.922 175 112.948 175 122.5C175 132.052 181.374 140.078 190 142.354V225C190 236.046 181.046 245 170 245H20C8.95431 245 0 236.046 0 225V142.59C9.12896 140.691 16 132.418 16 122.5C16 112.582 9.12896 104.309 0 102.41V20Z"/>
</mask>
<path d="M190 102.646L190.51 104.58L192 104.187V102.646H190ZM190 142.354H192V140.813L190.51 140.42L190 142.354ZM0 142.59L-0.407404 140.632L-2 140.963V142.59H0ZM0 102.41H-2V104.037L-0.407403 104.368L0 102.41ZM20 -2C7.84974 -2 -2 7.84974 -2 20H2C2 10.0589 10.0589 2 20 2V-2ZM170 -2H20V2H170V-2ZM192 20C192 7.84973 182.15 -2 170 -2V2C179.941 2 188 10.0589 188 20H192ZM192 102.646V20H188V102.646H192ZM177 122.5C177 113.848 182.77 106.622 190.51 104.58L189.49 100.712C179.978 103.221 173 112.048 173 122.5H177ZM190.51 140.42C182.77 138.378 177 131.152 177 122.5H173C173 132.952 179.978 141.779 189.49 144.288L190.51 140.42ZM192 225V142.354H188V225H192ZM170 247C182.15 247 192 237.15 192 225H188C188 234.941 179.941 243 170 243V247ZM20 247H170V243H20V247ZM-2 225C-2 237.15 7.84974 247 20 247V243C10.0589 243 2 234.941 2 225H-2ZM-2 142.59V225H2V142.59H-2ZM14 122.5C14 131.485 7.77974 138.928 -0.407404 140.632L0.407404 144.548C10.4782 142.453 18 133.351 18 122.5H14ZM-0.407403 104.368C7.77974 106.072 14 113.515 14 122.5H18C18 111.649 10.4782 102.547 0.407403 100.452L-0.407403 104.368ZM-2 20V102.41H2V20H-2Z" fill="#303964" mask="url(#path-1-inside-1_206:42)"/>
</svg>
